<?xml version="1.0" encoding="utf-8"?>
<!-- Generator: Adobe Illustrator 19.0.0, SVG Export Plug-In . SVG Version: 6.00 Build 0)  -->
<svg version="1.1" id="Livello_1" xmlns="http://www.w3.org/2000/svg" xmlns:xlink="http://www.w3.org/1999/xlink" x="0px" y="0px"
	 viewBox="0 0 175.2 175.8" style="enable-background:new 0 0 175.2 175.8;" xml:space="preserve">
<style type="text/css">
	.st0{fill:#010102;}
	.st1{fill:#DD0B15;}
	.st2{fill:#FFCE01;}
</style>
<g id="XMLID_7_">
	<path id="XMLID_8_" d="M87.6,175.5c0.2,0,0.3,0,0.4,0h-0.9C87.3,175.5,87.5,175.5,87.6,175.5z"/>
	<path id="XMLID_10_" class="st0" d="M87.6,0.3c-38.1,0-70.6,24.2-82.8,58h165.5C158.2,24.5,125.8,0.3,87.6,0.3z"/>
	<path id="XMLID_13_" class="st1" d="M175.5,87.9c0-10.4-1.8-20.4-5.1-29.6H4.9c-3.3,9.2-5.1,19.2-5.1,29.6c0,10.2,1.7,19.9,4.9,29
		h166C173.8,107.8,175.5,98.1,175.5,87.9z"/>
	<path id="XMLID_16_" class="st2" d="M170.6,116.9H4.6c12,34,44.4,58.4,82.5,58.6h0.9C126.2,175.3,158.6,150.9,170.6,116.9z"/>
</g>
</svg>
