<?xml version="1.0" encoding="utf-8"?>
<!-- Generator: Adobe Illustrator 19.0.0, SVG Export Plug-In . SVG Version: 6.00 Build 0)  -->
<svg version="1.1" id="Livello_1" xmlns="http://www.w3.org/2000/svg" xmlns:xlink="http://www.w3.org/1999/xlink" x="0px" y="0px"
	 viewBox="0 0 175.2 175.8" style="enable-background:new 0 0 175.2 175.8;" xml:space="preserve">
<style type="text/css">
	.st0{fill:#009245;}
	.st1{fill:#FFFFFF;}
	.st2{fill:#CE2C37;}
</style>
<g id="XMLID_7_">
	<path id="XMLID_8_" d="M175.3,87.9c0-0.2,0-0.3,0-0.4v0.9C175.2,88.2,175.3,88.1,175.3,87.9z"/>
	<path id="XMLID_10_" class="st0" d="M0,87.9c0,38.1,24.2,70.6,58,82.8V5.1C24.2,17.3,0,49.8,0,87.9z"/>
	<path id="XMLID_13_" class="st1" d="M87.6,0C77.2,0,67.3,1.8,58,5.1v165.5c9.2,3.3,19.2,5.1,29.6,5.1c10.2,0,19.9-1.7,29-4.9V4.9
		C107.6,1.7,97.8,0,87.6,0z"/>
	<path id="XMLID_16_" class="st2" d="M116.6,4.9v166c34-12,58.4-44.4,58.6-82.5v-0.9C175.1,49.3,150.6,16.9,116.6,4.9z"/>
</g>
</svg>
